<svg xmlns="http://www.w3.org/2000/svg" xmlns:svg="http://www.w3.org/2000/svg" xmlns:xlink="http://www.w3.org/1999/xlink" id="svg2" x="0" y="0" enable-background="new 215.5 1 100 100" version="1.1" viewBox="215.5 1 100 100" xml:space="preserve"><g id="g2585" transform="matrix(1.5242857,0,0,1.5242857,-39.829584,-26.595914)"><path id="path4" fill="#FF1A24" d="M190.3,20.1c2.8,0,5,2.2,5,5v51.6c0,2.6-2.2,5-5,5c-2.8,0-5-2.4-5-5V25.1 C185.3,22.3,187.5,20.1,190.3,20.1L190.3,20.1z"/><path id="path6" fill="#FF1A24" d="M210.3,20.1c2.8,0,5,2.2,5,5v51.6c0,2.6-2.2,5-5,5c-2.6,0-5-2.4-5-5V25.1 C205.3,22.3,207.7,20.1,210.3,20.1L210.3,20.1z"/></g></svg>